<svg width="25" height="25" viewBox="0 0 25 25" fill="none" xmlns="http://www.w3.org/2000/svg">
<g clip-path="url(#clip0_1_12)">
<path fill-rule="evenodd" clip-rule="evenodd" d="M20.2968 15.8906C18.9873 18.8977 15.9892 21 12.5 21C7.80558 21 4 17.1944 4 12.5C4 7.80558 7.80558 4 12.5 4C15.9892 4 18.9873 6.10233 20.2968 9.10938H24.5347C23.0569 3.85333 18.2284 0 12.5 0C5.59644 0 0 5.59644 0 12.5C0 19.4036 5.59644 25 12.5 25C18.2284 25 23.0569 21.1467 24.5347 15.8906H20.2968Z" fill="#03A9F4"/>
<path d="M16.8606 11.5393L24.7802 11.5393L24.7802 13.802L16.8605 13.8021L16.8606 11.5393ZM11.133 14.0142C10.3552 13.2364 10.3552 11.9636 11.133 11.1858C11.9108 10.4079 13.1836 10.4079 13.9614 11.1858C14.7392 11.9636 14.7392 13.2364 13.9614 14.0142C13.1836 14.792 11.9108 14.792 11.133 14.0142Z" fill="#222222"/>
</g>
<defs>
<clipPath id="clip0_1_12">
<rect width="25" height="25" fill="white"/>
</clipPath>
</defs>
</svg>
